<mxfile host="65bd71144e">
    <diagram id="C5RBs43oDa-KdzZeNtuy" name="Page-1">
        <mxGraphModel dx="440" dy="363" grid="1" gridSize="10" guides="1" tooltips="1" connect="1" arrows="1" fold="1" page="1" pageScale="1" pageWidth="827" pageHeight="1169" background="#f4f0f0" math="0" shadow="0">
            <root>
                <mxCell id="WIyWlLk6GJQsqaUBKTNV-0"/>
                <mxCell id="WIyWlLk6GJQsqaUBKTNV-1" parent="WIyWlLk6GJQsqaUBKTNV-0"/>
                <mxCell id="zkfFHV4jXpPFQw0GAbJ--0" value="Animals" style="swimlane;fontStyle=2;align=center;verticalAlign=top;childLayout=stackLayout;horizontal=1;startSize=26;horizontalStack=0;resizeParent=1;resizeLast=0;collapsible=1;marginBottom=0;rounded=0;shadow=0;strokeWidth=1;" parent="WIyWlLk6GJQsqaUBKTNV-1" vertex="1">
                    <mxGeometry x="334" y="40" width="160" height="138" as="geometry">
                        <mxRectangle x="350" width="160" height="26" as="alternateBounds"/>
                    </mxGeometry>
                </mxCell>
                <mxCell id="zkfFHV4jXpPFQw0GAbJ--1" value="Name" style="text;align=left;verticalAlign=top;spacingLeft=4;spacingRight=4;overflow=hidden;rotatable=0;points=[[0,0.5],[1,0.5]];portConstraint=eastwest;" parent="zkfFHV4jXpPFQw0GAbJ--0" vertex="1">
                    <mxGeometry y="26" width="160" height="26" as="geometry"/>
                </mxCell>
                <mxCell id="zkfFHV4jXpPFQw0GAbJ--3" value="Birthday" style="text;align=left;verticalAlign=top;spacingLeft=4;spacingRight=4;overflow=hidden;rotatable=0;points=[[0,0.5],[1,0.5]];portConstraint=eastwest;rounded=0;shadow=0;html=0;" parent="zkfFHV4jXpPFQw0GAbJ--0" vertex="1">
                    <mxGeometry y="52" width="160" height="26" as="geometry"/>
                </mxCell>
                <mxCell id="zkfFHV4jXpPFQw0GAbJ--2" value="Command" style="text;align=left;verticalAlign=top;spacingLeft=4;spacingRight=4;overflow=hidden;rotatable=0;points=[[0,0.5],[1,0.5]];portConstraint=eastwest;rounded=0;shadow=0;html=0;" parent="zkfFHV4jXpPFQw0GAbJ--0" vertex="1">
                    <mxGeometry y="78" width="160" height="26" as="geometry"/>
                </mxCell>
                <mxCell id="zkfFHV4jXpPFQw0GAbJ--4" value="" style="line;html=1;strokeWidth=1;align=left;verticalAlign=middle;spacingTop=-1;spacingLeft=3;spacingRight=3;rotatable=0;labelPosition=right;points=[];portConstraint=eastwest;" parent="zkfFHV4jXpPFQw0GAbJ--0" vertex="1">
                    <mxGeometry y="104" width="160" height="8" as="geometry"/>
                </mxCell>
                <mxCell id="zkfFHV4jXpPFQw0GAbJ--12" value="" style="endArrow=block;endSize=10;endFill=0;shadow=0;strokeWidth=1;rounded=0;edgeStyle=elbowEdgeStyle;elbow=vertical;exitX=0.5;exitY=0;exitDx=0;exitDy=0;" parent="WIyWlLk6GJQsqaUBKTNV-1" source="6VIUqPaumaLzMjrVTRA--8" target="zkfFHV4jXpPFQw0GAbJ--0" edge="1">
                    <mxGeometry width="160" relative="1" as="geometry">
                        <mxPoint x="160" y="120" as="sourcePoint"/>
                        <mxPoint x="330" y="123" as="targetPoint"/>
                        <Array as="points">
                            <mxPoint x="220" y="100"/>
                            <mxPoint x="300" y="100"/>
                            <mxPoint x="290" y="100"/>
                        </Array>
                    </mxGeometry>
                </mxCell>
                <mxCell id="zkfFHV4jXpPFQw0GAbJ--16" value="" style="endArrow=block;endSize=10;endFill=0;shadow=0;strokeWidth=1;rounded=0;edgeStyle=elbowEdgeStyle;elbow=vertical;exitX=0.5;exitY=0;exitDx=0;exitDy=0;" parent="WIyWlLk6GJQsqaUBKTNV-1" source="6VIUqPaumaLzMjrVTRA--3" target="zkfFHV4jXpPFQw0GAbJ--0" edge="1">
                    <mxGeometry width="160" relative="1" as="geometry">
                        <mxPoint x="680" y="120" as="sourcePoint"/>
                        <mxPoint x="440" y="191" as="targetPoint"/>
                        <Array as="points">
                            <mxPoint x="580" y="100"/>
                            <mxPoint x="590" y="100"/>
                        </Array>
                    </mxGeometry>
                </mxCell>
                <mxCell id="6VIUqPaumaLzMjrVTRA--3" value="PackAnimals" style="swimlane;fontStyle=2;align=center;verticalAlign=top;childLayout=stackLayout;horizontal=1;startSize=26;horizontalStack=0;resizeParent=1;resizeLast=0;collapsible=1;marginBottom=0;rounded=0;shadow=0;strokeWidth=1;" parent="WIyWlLk6GJQsqaUBKTNV-1" vertex="1">
                    <mxGeometry x="542" y="120" width="160" height="80" as="geometry">
                        <mxRectangle x="350" width="160" height="26" as="alternateBounds"/>
                    </mxGeometry>
                </mxCell>
                <mxCell id="6VIUqPaumaLzMjrVTRA--4" value="Extended by Animals" style="text;align=left;verticalAlign=top;spacingLeft=4;spacingRight=4;overflow=hidden;rotatable=0;points=[[0,0.5],[1,0.5]];portConstraint=eastwest;" parent="6VIUqPaumaLzMjrVTRA--3" vertex="1">
                    <mxGeometry y="26" width="160" height="26" as="geometry"/>
                </mxCell>
                <mxCell id="6VIUqPaumaLzMjrVTRA--7" value="" style="line;html=1;strokeWidth=1;align=left;verticalAlign=middle;spacingTop=-1;spacingLeft=3;spacingRight=3;rotatable=0;labelPosition=right;points=[];portConstraint=eastwest;" parent="6VIUqPaumaLzMjrVTRA--3" vertex="1">
                    <mxGeometry y="52" width="160" height="8" as="geometry"/>
                </mxCell>
                <mxCell id="6VIUqPaumaLzMjrVTRA--8" value="Pets" style="swimlane;fontStyle=2;align=center;verticalAlign=top;childLayout=stackLayout;horizontal=1;startSize=26;horizontalStack=0;resizeParent=1;resizeLast=0;collapsible=1;marginBottom=0;rounded=0;shadow=0;strokeWidth=1;" parent="WIyWlLk6GJQsqaUBKTNV-1" vertex="1">
                    <mxGeometry x="122" y="120" width="160" height="80" as="geometry">
                        <mxRectangle x="122" y="120" width="160" height="26" as="alternateBounds"/>
                    </mxGeometry>
                </mxCell>
                <mxCell id="6VIUqPaumaLzMjrVTRA--10" value="Extended by Animals" style="text;align=left;verticalAlign=top;spacingLeft=4;spacingRight=4;overflow=hidden;rotatable=0;points=[[0,0.5],[1,0.5]];portConstraint=eastwest;rounded=0;shadow=0;html=0;" parent="6VIUqPaumaLzMjrVTRA--8" vertex="1">
                    <mxGeometry y="26" width="160" height="26" as="geometry"/>
                </mxCell>
                <mxCell id="6VIUqPaumaLzMjrVTRA--12" value="" style="line;html=1;strokeWidth=1;align=left;verticalAlign=middle;spacingTop=-1;spacingLeft=3;spacingRight=3;rotatable=0;labelPosition=right;points=[];portConstraint=eastwest;" parent="6VIUqPaumaLzMjrVTRA--8" vertex="1">
                    <mxGeometry y="52" width="160" height="8" as="geometry"/>
                </mxCell>
                <mxCell id="6VIUqPaumaLzMjrVTRA--23" value="Donkeys" style="swimlane;fontStyle=2;align=center;verticalAlign=top;childLayout=stackLayout;horizontal=1;startSize=26;horizontalStack=0;resizeParent=1;resizeLast=0;collapsible=1;marginBottom=0;rounded=0;shadow=0;strokeWidth=1;" parent="WIyWlLk6GJQsqaUBKTNV-1" vertex="1">
                    <mxGeometry x="702" y="280" width="124" height="100" as="geometry">
                        <mxRectangle x="350" width="160" height="26" as="alternateBounds"/>
                    </mxGeometry>
                </mxCell>
                <mxCell id="6VIUqPaumaLzMjrVTRA--24" value="Extended by &#10;PackAnimals" style="text;align=left;verticalAlign=top;spacingLeft=4;spacingRight=4;overflow=hidden;rotatable=0;points=[[0,0.5],[1,0.5]];portConstraint=eastwest;" parent="6VIUqPaumaLzMjrVTRA--23" vertex="1">
                    <mxGeometry y="26" width="124" height="44" as="geometry"/>
                </mxCell>
                <mxCell id="6VIUqPaumaLzMjrVTRA--27" value="" style="line;html=1;strokeWidth=1;align=left;verticalAlign=middle;spacingTop=-1;spacingLeft=3;spacingRight=3;rotatable=0;labelPosition=right;points=[];portConstraint=eastwest;" parent="6VIUqPaumaLzMjrVTRA--23" vertex="1">
                    <mxGeometry y="70" width="124" height="8" as="geometry"/>
                </mxCell>
                <mxCell id="6VIUqPaumaLzMjrVTRA--29" value="Camels" style="swimlane;fontStyle=2;align=center;verticalAlign=top;childLayout=stackLayout;horizontal=1;startSize=26;horizontalStack=0;resizeParent=1;resizeLast=0;collapsible=1;marginBottom=0;rounded=0;shadow=0;strokeWidth=1;" parent="WIyWlLk6GJQsqaUBKTNV-1" vertex="1">
                    <mxGeometry x="560" y="280" width="124" height="100" as="geometry">
                        <mxRectangle x="350" width="160" height="26" as="alternateBounds"/>
                    </mxGeometry>
                </mxCell>
                <mxCell id="6VIUqPaumaLzMjrVTRA--30" value="Extended by &#10;PackAnimals" style="text;align=left;verticalAlign=top;spacingLeft=4;spacingRight=4;overflow=hidden;rotatable=0;points=[[0,0.5],[1,0.5]];portConstraint=eastwest;" parent="6VIUqPaumaLzMjrVTRA--29" vertex="1">
                    <mxGeometry y="26" width="124" height="44" as="geometry"/>
                </mxCell>
                <mxCell id="6VIUqPaumaLzMjrVTRA--33" value="" style="line;html=1;strokeWidth=1;align=left;verticalAlign=middle;spacingTop=-1;spacingLeft=3;spacingRight=3;rotatable=0;labelPosition=right;points=[];portConstraint=eastwest;" parent="6VIUqPaumaLzMjrVTRA--29" vertex="1">
                    <mxGeometry y="70" width="124" height="8" as="geometry"/>
                </mxCell>
                <mxCell id="6VIUqPaumaLzMjrVTRA--34" value="Horses" style="swimlane;fontStyle=2;align=center;verticalAlign=top;childLayout=stackLayout;horizontal=1;startSize=26;horizontalStack=0;resizeParent=1;resizeLast=0;collapsible=1;marginBottom=0;rounded=0;shadow=0;strokeWidth=1;" parent="WIyWlLk6GJQsqaUBKTNV-1" vertex="1">
                    <mxGeometry x="418" y="280" width="124" height="100" as="geometry">
                        <mxRectangle x="350" width="160" height="26" as="alternateBounds"/>
                    </mxGeometry>
                </mxCell>
                <mxCell id="6VIUqPaumaLzMjrVTRA--35" value="Extended by &#10;PackAnimals" style="text;align=left;verticalAlign=top;spacingLeft=4;spacingRight=4;overflow=hidden;rotatable=0;points=[[0,0.5],[1,0.5]];portConstraint=eastwest;" parent="6VIUqPaumaLzMjrVTRA--34" vertex="1">
                    <mxGeometry y="26" width="124" height="44" as="geometry"/>
                </mxCell>
                <mxCell id="6VIUqPaumaLzMjrVTRA--38" value="" style="line;html=1;strokeWidth=1;align=left;verticalAlign=middle;spacingTop=-1;spacingLeft=3;spacingRight=3;rotatable=0;labelPosition=right;points=[];portConstraint=eastwest;" parent="6VIUqPaumaLzMjrVTRA--34" vertex="1">
                    <mxGeometry y="70" width="124" height="8" as="geometry"/>
                </mxCell>
                <mxCell id="6VIUqPaumaLzMjrVTRA--39" value="Dogs" style="swimlane;fontStyle=2;align=center;verticalAlign=top;childLayout=stackLayout;horizontal=1;startSize=26;horizontalStack=0;resizeParent=1;resizeLast=0;collapsible=1;marginBottom=0;rounded=0;shadow=0;strokeWidth=1;" parent="WIyWlLk6GJQsqaUBKTNV-1" vertex="1">
                    <mxGeometry y="280" width="124" height="100" as="geometry">
                        <mxRectangle x="350" width="160" height="26" as="alternateBounds"/>
                    </mxGeometry>
                </mxCell>
                <mxCell id="6VIUqPaumaLzMjrVTRA--42" value="Extended by Pets" style="text;align=left;verticalAlign=top;spacingLeft=4;spacingRight=4;overflow=hidden;rotatable=0;points=[[0,0.5],[1,0.5]];portConstraint=eastwest;rounded=0;shadow=0;html=0;" parent="6VIUqPaumaLzMjrVTRA--39" vertex="1">
                    <mxGeometry y="26" width="124" height="26" as="geometry"/>
                </mxCell>
                <mxCell id="6VIUqPaumaLzMjrVTRA--43" value="" style="line;html=1;strokeWidth=1;align=left;verticalAlign=middle;spacingTop=-1;spacingLeft=3;spacingRight=3;rotatable=0;labelPosition=right;points=[];portConstraint=eastwest;" parent="6VIUqPaumaLzMjrVTRA--39" vertex="1">
                    <mxGeometry y="52" width="124" height="38" as="geometry"/>
                </mxCell>
                <mxCell id="6VIUqPaumaLzMjrVTRA--44" value="Cats" style="swimlane;fontStyle=2;align=center;verticalAlign=top;childLayout=stackLayout;horizontal=1;startSize=26;horizontalStack=0;resizeParent=1;resizeLast=0;collapsible=1;marginBottom=0;rounded=0;shadow=0;strokeWidth=1;" parent="WIyWlLk6GJQsqaUBKTNV-1" vertex="1">
                    <mxGeometry x="140" y="280" width="124" height="100" as="geometry">
                        <mxRectangle x="350" width="160" height="26" as="alternateBounds"/>
                    </mxGeometry>
                </mxCell>
                <mxCell id="6VIUqPaumaLzMjrVTRA--45" value="Extended by Pets" style="text;align=left;verticalAlign=top;spacingLeft=4;spacingRight=4;overflow=hidden;rotatable=0;points=[[0,0.5],[1,0.5]];portConstraint=eastwest;" parent="6VIUqPaumaLzMjrVTRA--44" vertex="1">
                    <mxGeometry y="26" width="124" height="26" as="geometry"/>
                </mxCell>
                <mxCell id="6VIUqPaumaLzMjrVTRA--48" value="" style="line;html=1;strokeWidth=1;align=left;verticalAlign=middle;spacingTop=-1;spacingLeft=3;spacingRight=3;rotatable=0;labelPosition=right;points=[];portConstraint=eastwest;" parent="6VIUqPaumaLzMjrVTRA--44" vertex="1">
                    <mxGeometry y="52" width="124" height="38" as="geometry"/>
                </mxCell>
                <mxCell id="6VIUqPaumaLzMjrVTRA--49" value="Hamsters" style="swimlane;fontStyle=2;align=center;verticalAlign=top;childLayout=stackLayout;horizontal=1;startSize=26;horizontalStack=0;resizeParent=1;resizeLast=0;collapsible=1;marginBottom=0;rounded=0;shadow=0;strokeWidth=1;" parent="WIyWlLk6GJQsqaUBKTNV-1" vertex="1">
                    <mxGeometry x="280" y="280" width="124" height="100" as="geometry">
                        <mxRectangle x="350" width="160" height="26" as="alternateBounds"/>
                    </mxGeometry>
                </mxCell>
                <mxCell id="6VIUqPaumaLzMjrVTRA--50" value="Extended by Pets" style="text;align=left;verticalAlign=top;spacingLeft=4;spacingRight=4;overflow=hidden;rotatable=0;points=[[0,0.5],[1,0.5]];portConstraint=eastwest;" parent="6VIUqPaumaLzMjrVTRA--49" vertex="1">
                    <mxGeometry y="26" width="124" height="26" as="geometry"/>
                </mxCell>
                <mxCell id="6VIUqPaumaLzMjrVTRA--53" value="" style="line;html=1;strokeWidth=1;align=left;verticalAlign=middle;spacingTop=-1;spacingLeft=3;spacingRight=3;rotatable=0;labelPosition=right;points=[];portConstraint=eastwest;" parent="6VIUqPaumaLzMjrVTRA--49" vertex="1">
                    <mxGeometry y="52" width="124" height="38" as="geometry"/>
                </mxCell>
                <mxCell id="6VIUqPaumaLzMjrVTRA--56" value="" style="endArrow=block;endSize=10;endFill=0;shadow=0;strokeWidth=1;rounded=0;edgeStyle=elbowEdgeStyle;elbow=vertical;exitX=0.5;exitY=0;exitDx=0;exitDy=0;" parent="WIyWlLk6GJQsqaUBKTNV-1" source="6VIUqPaumaLzMjrVTRA--39" edge="1">
                    <mxGeometry width="160" relative="1" as="geometry">
                        <mxPoint x="60" y="280" as="sourcePoint"/>
                        <mxPoint x="150" y="200" as="targetPoint"/>
                        <Array as="points">
                            <mxPoint x="70" y="240"/>
                            <mxPoint x="88" y="130"/>
                            <mxPoint x="78" y="130"/>
                        </Array>
                    </mxGeometry>
                </mxCell>
                <mxCell id="6VIUqPaumaLzMjrVTRA--57" value="" style="endArrow=block;endSize=10;endFill=0;shadow=0;strokeWidth=1;rounded=0;edgeStyle=elbowEdgeStyle;elbow=vertical;exitX=0.5;exitY=0;exitDx=0;exitDy=0;entryX=0.5;entryY=1;entryDx=0;entryDy=0;" parent="WIyWlLk6GJQsqaUBKTNV-1" source="6VIUqPaumaLzMjrVTRA--44" target="6VIUqPaumaLzMjrVTRA--8" edge="1">
                    <mxGeometry width="160" relative="1" as="geometry">
                        <mxPoint x="200" y="290" as="sourcePoint"/>
                        <mxPoint x="260" y="140" as="targetPoint"/>
                        <Array as="points">
                            <mxPoint x="200" y="210"/>
                            <mxPoint x="226" y="140"/>
                            <mxPoint x="216" y="140"/>
                        </Array>
                    </mxGeometry>
                </mxCell>
                <mxCell id="6VIUqPaumaLzMjrVTRA--58" value="" style="endArrow=block;endSize=10;endFill=0;shadow=0;strokeWidth=1;rounded=0;edgeStyle=elbowEdgeStyle;elbow=vertical;exitX=0.5;exitY=0;exitDx=0;exitDy=0;" parent="WIyWlLk6GJQsqaUBKTNV-1" edge="1">
                    <mxGeometry width="160" relative="1" as="geometry">
                        <mxPoint x="341.5" y="280" as="sourcePoint"/>
                        <mxPoint x="260" y="200" as="targetPoint"/>
                        <Array as="points">
                            <mxPoint x="310" y="240"/>
                            <mxPoint x="365.5" y="140"/>
                            <mxPoint x="355.5" y="140"/>
                        </Array>
                    </mxGeometry>
                </mxCell>
                <mxCell id="6VIUqPaumaLzMjrVTRA--59" value="" style="endArrow=block;endSize=10;endFill=0;shadow=0;strokeWidth=1;rounded=0;edgeStyle=elbowEdgeStyle;elbow=vertical;exitX=0.5;exitY=0;exitDx=0;exitDy=0;" parent="WIyWlLk6GJQsqaUBKTNV-1" edge="1">
                    <mxGeometry width="160" relative="1" as="geometry">
                        <mxPoint x="482.25" y="280" as="sourcePoint"/>
                        <mxPoint x="570.25" y="200" as="targetPoint"/>
                        <Array as="points">
                            <mxPoint x="490.25" y="240"/>
                            <mxPoint x="508.25" y="130"/>
                            <mxPoint x="498.25" y="130"/>
                        </Array>
                    </mxGeometry>
                </mxCell>
                <mxCell id="6VIUqPaumaLzMjrVTRA--61" value="" style="endArrow=block;endSize=10;endFill=0;shadow=0;strokeWidth=1;rounded=0;edgeStyle=elbowEdgeStyle;elbow=vertical;exitX=0.5;exitY=0;exitDx=0;exitDy=0;" parent="WIyWlLk6GJQsqaUBKTNV-1" edge="1">
                    <mxGeometry width="160" relative="1" as="geometry">
                        <mxPoint x="761.75" y="280" as="sourcePoint"/>
                        <mxPoint x="680.25" y="200" as="targetPoint"/>
                        <Array as="points">
                            <mxPoint x="730.25" y="240"/>
                            <mxPoint x="785.75" y="140"/>
                            <mxPoint x="775.75" y="140"/>
                        </Array>
                    </mxGeometry>
                </mxCell>
                <mxCell id="6VIUqPaumaLzMjrVTRA--62" value="&lt;span style=&quot;color: rgb(0, 0, 0); font-family: Arial, Helvetica, sans-serif; font-size: 16px; font-style: normal; font-variant-ligatures: normal; font-variant-caps: normal; font-weight: 400; letter-spacing: normal; orphans: 2; text-indent: 0px; text-transform: none; widows: 2; word-spacing: 0px; -webkit-text-stroke-width: 0px; background-color: rgba(7, 28, 71, 0.05); text-decoration-thickness: initial; text-decoration-style: initial; text-decoration-color: initial; float: none; display: inline !important;&quot;&gt;Parent class&lt;/span&gt;" style="text;whiteSpace=wrap;html=1;fontSize=16;align=center;" parent="WIyWlLk6GJQsqaUBKTNV-1" vertex="1">
                    <mxGeometry x="329" width="170" height="40" as="geometry"/>
                </mxCell>
                <mxCell id="6VIUqPaumaLzMjrVTRA--63" value="&lt;font face=&quot;Arial, Helvetica, sans-serif&quot;&gt;&lt;span style=&quot;background-color: rgba(7, 28, 71, 0.05);&quot;&gt;Extends&lt;/span&gt;&lt;/font&gt;" style="text;whiteSpace=wrap;html=1;fontSize=16;align=center;" parent="WIyWlLk6GJQsqaUBKTNV-1" vertex="1">
                    <mxGeometry x="230" y="60" width="80" height="30" as="geometry"/>
                </mxCell>
                <mxCell id="6VIUqPaumaLzMjrVTRA--64" value="&lt;font face=&quot;Arial, Helvetica, sans-serif&quot;&gt;&lt;span style=&quot;background-color: rgba(7, 28, 71, 0.05);&quot;&gt;Extends&lt;/span&gt;&lt;/font&gt;" style="text;whiteSpace=wrap;html=1;fontSize=16;align=center;" parent="WIyWlLk6GJQsqaUBKTNV-1" vertex="1">
                    <mxGeometry x="530" y="60" width="80" height="30" as="geometry"/>
                </mxCell>
                <mxCell id="6VIUqPaumaLzMjrVTRA--65" value="&lt;font face=&quot;Arial, Helvetica, sans-serif&quot;&gt;&lt;span style=&quot;background-color: rgba(7, 28, 71, 0.05);&quot;&gt;Extends&lt;/span&gt;&lt;/font&gt;" style="text;whiteSpace=wrap;html=1;fontSize=16;align=center;" parent="WIyWlLk6GJQsqaUBKTNV-1" vertex="1">
                    <mxGeometry x="162" y="220" width="80" height="30" as="geometry"/>
                </mxCell>
                <mxCell id="6VIUqPaumaLzMjrVTRA--66" value="&lt;font face=&quot;Arial, Helvetica, sans-serif&quot;&gt;&lt;span style=&quot;background-color: rgba(7, 28, 71, 0.05);&quot;&gt;Extends&lt;/span&gt;&lt;/font&gt;" style="text;whiteSpace=wrap;html=1;fontSize=16;align=center;" parent="WIyWlLk6GJQsqaUBKTNV-1" vertex="1">
                    <mxGeometry x="582" y="220" width="80" height="30" as="geometry"/>
                </mxCell>
                <mxCell id="6VIUqPaumaLzMjrVTRA--68" value="&lt;font face=&quot;Arial, Helvetica, sans-serif&quot;&gt;&lt;span style=&quot;background-color: rgba(7, 28, 71, 0.05);&quot;&gt;Extends&lt;/span&gt;&lt;/font&gt;" style="text;whiteSpace=wrap;html=1;fontSize=16;align=center;" parent="WIyWlLk6GJQsqaUBKTNV-1" vertex="1">
                    <mxGeometry x="60" y="210" width="80" height="30" as="geometry"/>
                </mxCell>
                <mxCell id="6VIUqPaumaLzMjrVTRA--69" value="&lt;font face=&quot;Arial, Helvetica, sans-serif&quot;&gt;&lt;span style=&quot;background-color: rgba(7, 28, 71, 0.05);&quot;&gt;Extends&lt;/span&gt;&lt;/font&gt;" style="text;whiteSpace=wrap;html=1;fontSize=16;align=center;" parent="WIyWlLk6GJQsqaUBKTNV-1" vertex="1">
                    <mxGeometry x="270" y="210" width="80" height="30" as="geometry"/>
                </mxCell>
                <mxCell id="6VIUqPaumaLzMjrVTRA--70" value="&lt;font face=&quot;Arial, Helvetica, sans-serif&quot;&gt;&lt;span style=&quot;background-color: rgba(7, 28, 71, 0.05);&quot;&gt;Extends&lt;/span&gt;&lt;/font&gt;" style="text;whiteSpace=wrap;html=1;fontSize=16;align=center;" parent="WIyWlLk6GJQsqaUBKTNV-1" vertex="1">
                    <mxGeometry x="490" y="210" width="80" height="30" as="geometry"/>
                </mxCell>
                <mxCell id="6VIUqPaumaLzMjrVTRA--71" value="&lt;font face=&quot;Arial, Helvetica, sans-serif&quot;&gt;&lt;span style=&quot;background-color: rgba(7, 28, 71, 0.05);&quot;&gt;Extends&lt;/span&gt;&lt;/font&gt;" style="text;whiteSpace=wrap;html=1;fontSize=16;align=center;" parent="WIyWlLk6GJQsqaUBKTNV-1" vertex="1">
                    <mxGeometry x="684" y="210" width="80" height="30" as="geometry"/>
                </mxCell>
                <mxCell id="6VIUqPaumaLzMjrVTRA--74" value="" style="endArrow=block;endSize=10;endFill=0;shadow=0;strokeWidth=1;rounded=0;edgeStyle=elbowEdgeStyle;elbow=vertical;exitX=0.5;exitY=0;exitDx=0;exitDy=0;entryX=0.5;entryY=1;entryDx=0;entryDy=0;" parent="WIyWlLk6GJQsqaUBKTNV-1" source="6VIUqPaumaLzMjrVTRA--29" target="6VIUqPaumaLzMjrVTRA--3" edge="1">
                    <mxGeometry width="160" relative="1" as="geometry">
                        <mxPoint x="492.25" y="290" as="sourcePoint"/>
                        <mxPoint x="580.25" y="210" as="targetPoint"/>
                        <Array as="points">
                            <mxPoint x="620" y="240"/>
                            <mxPoint x="518.25" y="140"/>
                            <mxPoint x="508.25" y="140"/>
                        </Array>
                    </mxGeometry>
                </mxCell>
            </root>
        </mxGraphModel>
    </diagram>
</mxfile>